HIERARCHY
ROOT Hips
{
	OFFSET 0.000000 0.000000 0.000000 
	CHANNELS 6 Xposition Yposition Zposition Zrotation Yrotation Xrotation
	JOINT LeftUpLeg
	{
		OFFSET 1.363060 -1.794630 0.839290 
		CHANNELS 3 Zrotation Yrotation Xrotation
		JOINT LeftLeg
		{
			OFFSET 2.448110 -6.726130 0.000000 
			CHANNELS 3 Zrotation Yrotation Xrotation
			JOINT LeftFoot
			{
				OFFSET 2.562200 -7.039590 0.000000 
				CHANNELS 3 Zrotation Yrotation Xrotation
				JOINT LeftToeBase
				{
					OFFSET 0.157640 -0.433110 2.322550 
					CHANNELS 3 Zrotation Yrotation Xrotation
					End Site
					{
						OFFSET 0.000000 0.000000 0.000000 
					}
				}
			}
		}
	}
	JOINT RightUpLeg
	{
		OFFSET -1.305520 -1.794630 0.839290 
		CHANNELS 3 Zrotation Yrotation Xrotation
		JOINT RightLeg
		{
			OFFSET -2.542530 -6.985550 0.000000 
			CHANNELS 3 Zrotation Yrotation Xrotation
			JOINT RightFoot
			{
				OFFSET -2.568260 -7.056230 0.000000 
				CHANNELS 3 Zrotation Yrotation Xrotation
				JOINT RightToeBase
				{
					OFFSET -0.164730 -0.452590 2.363150 
					CHANNELS 3 Zrotation Yrotation Xrotation
					End Site
					{
						OFFSET 0.000000 0.000000 0.000000 
					}
				}
			}
		}
	}
	JOINT Spine
	{
		OFFSET 0.028270 2.035590 -0.193380 
		CHANNELS 3 Zrotation Yrotation Xrotation
		JOINT Spine1
		{
			OFFSET 0.056720 2.048850 -0.042750 
			CHANNELS 3 Zrotation Yrotation Xrotation
			JOINT Neck1
			{
				OFFSET -0.054170 1.746240 0.172020 
				CHANNELS 3 Zrotation Yrotation Xrotation
				JOINT Head
				{
					OFFSET 0.104070 1.761360 -0.123970 
					CHANNELS 3 Zrotation Yrotation Xrotation
					End Site
					{
						OFFSET 0.000000 0.000000 0.000000 
					}
				}
			}
			JOINT LeftArm
			{
				OFFSET 3.362410 1.200890 -0.311210 
				CHANNELS 3 Zrotation Yrotation Xrotation
				JOINT LeftForeArm
				{
					OFFSET 4.983000 -0.000000 -0.000000 
					CHANNELS 3 Zrotation Yrotation Xrotation
					JOINT LeftHand
					{
						OFFSET 3.483560 -0.000000 -0.000000 
						CHANNELS 3 Zrotation Yrotation Xrotation
						JOINT LeftHandIndex1
						{
							OFFSET 0.715260 -0.000000 -0.000000 
							CHANNELS 3 Zrotation Yrotation Xrotation
							End Site
							{
								OFFSET 0.000000 0.000000 0.000000 
							}
						}
					}
				}
			}
			JOINT RightArm
			{
				OFFSET -3.136600 1.374050 -0.404650 
				CHANNELS 3 Zrotation Yrotation Xrotation
				JOINT RightForeArm
				{
					OFFSET -5.241900 -0.000000 -0.000000 
					CHANNELS 3 Zrotation Yrotation Xrotation
					JOINT RightHand
					{
						OFFSET -3.444170 -0.000000 -0.000000 
						CHANNELS 3 Zrotation Yrotation Xrotation
						JOINT RightHandIndex1
						{
							OFFSET -0.622530 -0.000000 -0.000000 
							CHANNELS 3 Zrotation Yrotation Xrotation
							End Site
							{
								OFFSET 0.000000 0.000000 0.000000 
							}
						}
					}
				}
			}
		}
	}
}
MOTION
Frames: 15
Frame Time: 0.041667
7.753009 17.859195 34.579184 179.055704 -1.221747 -154.107382 -26.235594 -18.098837 -17.489688 -1.070418 4.706305 10.560533 -0.055342 -6.304841 -15.184639 2.264300 -9.396100 -27.042500 33.227236 15.158972 -16.107675 1.386101 -3.168625 7.021532 -1.088374 -0.777237 -20.844353 -2.166200 9.203900 -26.435300 1.296512 0.186755 -5.179439 -0.254098 -0.934163 13.872139 12.969627 -6.549561 15.607017 2.206100 -2.483000 3.640800 -105.743277 -2.451868 9.853599 10.491123 -11.444427 -1.265588 -1.706474 1.311998 8.056443 -7.125000 0.000000 0.000000 100.543632 -4.290716 8.161048 -16.356195 27.860600 -5.212978 0.154222 3.848346 -3.072793 7.125000 0.000000 0.000000 
7.754325 17.860072 34.574799 179.062679 -1.249650 -154.183305 -26.287998 -17.888892 -17.449482 -1.063193 4.699590 10.568659 -0.076973 -6.412196 -15.094018 2.477500 -9.796900 -28.321400 33.257214 15.069240 -15.997794 1.381067 -3.156525 7.029694 -1.097837 -0.660380 -20.880560 -2.091300 9.053800 -25.963800 1.211448 0.405418 -5.139261 -0.339474 -0.843720 13.926264 12.848946 -6.804141 15.518852 2.056700 -2.604000 3.626400 -105.404105 -2.673309 9.939423 10.428532 -11.350292 -1.250660 -1.675812 1.358976 8.153111 -7.125000 0.000000 0.000000 100.877169 -4.235725 7.447057 -16.151864 27.615996 -5.108677 0.190693 3.837295 -2.914379 7.125000 0.000000 0.000000 
7.755092 17.864348 34.565261 179.081231 -1.246104 -154.444022 -26.355442 -17.655044 -17.148108 -1.059883 4.643341 10.509325 -0.080569 -6.455642 -15.065690 2.622500 -10.057400 -29.162700 33.367770 14.723819 -15.678150 1.367446 -3.086866 6.968522 -1.108226 -0.358458 -20.828897 -2.018200 8.904000 -25.495300 1.285157 0.270760 -5.140147 -0.170154 -0.886103 13.864841 13.060265 -6.590791 15.345206 2.230200 -2.521100 3.500400 -105.640545 -2.544606 9.464619 10.440660 -11.382084 -1.253011 -1.673033 1.364653 8.294107 -7.125000 0.000000 0.000000 100.538052 -4.424548 7.521075 -15.938730 27.338414 -4.997471 0.232383 3.818415 -2.716358 7.125000 0.000000 0.000000 
7.757613 17.867088 34.561205 179.121702 -1.296115 -154.612596 -26.335719 -17.630937 -16.925704 -1.057989 4.605447 10.460952 -0.086029 -6.517036 -15.065192 2.492600 -9.824400 -28.409800 33.483622 14.532780 -15.440943 1.366690 -3.035832 6.912629 -1.108534 -0.368309 -20.783906 -2.076300 9.023200 -25.868000 1.227284 0.413960 -5.110745 -0.221366 -0.816987 13.846626 13.260150 -6.586014 15.410579 2.291000 -2.507800 3.561600 -105.397891 -2.603769 9.890161 10.445198 -11.381841 -1.255971 -1.673469 1.345833 8.176271 -7.125000 0.000000 0.000000 100.793697 -4.375208 6.790391 -15.636755 26.958117 -4.840526 0.279127 3.827298 -2.188621 7.125000 0.000000 0.000000 
7.761231 17.865882 34.564932 179.084816 -1.363659 -154.549150 -26.305938 -17.646330 -17.054768 -1.051756 4.630195 10.503507 -0.108982 -6.672632 -15.067655 2.353700 -9.566800 -27.585000 33.465476 14.581890 -15.523729 1.372615 -3.046143 6.912637 -1.105061 -0.507434 -20.801631 -2.134200 9.140200 -26.234900 1.334035 0.156082 -5.162725 0.008994 -0.928017 13.740805 13.355998 -6.512871 15.164388 2.404600 -2.499400 3.419100 -105.717953 -2.418149 9.473596 10.491321 -11.468956 -1.269775 -1.664398 1.333418 8.142674 -7.125000 0.000000 0.000000 100.393381 -4.539958 7.028138 -15.388768 26.630366 -4.710806 0.311920 3.870564 -1.996455 7.125000 0.000000 0.000000 
7.762217 17.864238 34.567673 179.072928 -1.376335 -154.447823 -26.282232 -17.670968 -17.170868 -1.052336 4.633063 10.482753 -0.119179 -6.727433 -15.057913 2.323800 -9.510200 -27.404800 33.429730 14.672076 -15.656543 1.375430 -3.070839 6.934439 -1.105121 -0.547653 -20.838348 -2.124900 9.121500 -26.176100 1.351440 0.114424 -5.189834 0.073439 -0.956192 13.695997 13.336498 -6.532234 15.428373 2.433500 -2.494100 3.570200 -105.766239 -2.355681 9.395608 10.517831 -11.514973 -1.279319 -1.655543 1.335584 8.150014 -7.125000 0.000000 0.000000 100.329980 -4.643615 6.892498 -15.213216 26.411967 -4.623321 0.328276 3.888486 -2.127300 7.125000 0.000000 0.000000 
7.759367 17.864348 34.568221 179.115956 -1.372192 -154.334019 -26.229338 -17.633986 -17.277373 -1.055206 4.610045 10.400086 -0.133966 -6.754683 -14.952851 2.264000 -9.395600 -27.040900 33.437520 14.681126 -15.842255 1.372194 -3.107858 6.979592 -1.100867 -0.457647 -20.811041 -2.149500 9.170800 -26.330900 1.317145 0.217166 -5.189239 0.000249 -0.904711 13.712321 13.451671 -6.560456 15.138328 2.445400 -2.524800 3.419200 -105.666112 -2.438419 9.385285 10.517396 -11.516883 -1.278761 -1.659724 1.342206 8.375806 -7.125000 0.000000 0.000000 100.472097 -4.637468 6.424048 -15.003239 26.143128 -4.518262 0.341253 3.909344 -2.158806 7.125000 0.000000 0.000000 
7.755530 17.864238 34.568989 179.168642 -1.340886 -154.191605 -26.149465 -17.654585 -17.443269 -1.058588 4.617484 10.378896 -0.137331 -6.711959 -14.873540 2.129700 -9.131300 -26.206800 33.432295 14.645042 -16.110575 1.364401 -3.173379 7.086810 -1.098853 -0.284202 -20.794502 -2.165900 9.203500 -26.434000 1.275340 0.322560 -5.179547 -0.100169 -0.860776 13.789816 13.416877 -6.667446 15.210607 2.406300 -2.570100 3.469600 -105.495875 -2.518190 9.798595 10.541901 -11.549297 -1.288735 -1.651410 1.329763 8.155041 -7.125000 0.000000 0.000000 100.641534 -4.523938 5.859049 -14.734964 25.802737 -4.385946 0.377428 3.938455 -1.868581 7.125000 0.000000 0.000000 
7.758161 17.862594 34.573812 179.198397 -1.392766 -154.095602 -26.041562 -17.716484 -17.612324 -1.056619 4.663074 10.461958 -0.138099 -6.714954 -14.889694 2.199200 -9.269200 -26.641100 33.469910 14.760600 -16.246782 1.367818 -3.224773 7.173115 -1.106433 -0.333174 -20.906118 -2.132900 9.137600 -26.226700 1.305994 0.230356 -5.200029 -0.061159 -0.903474 13.764119 13.145668 -6.686711 15.149827 2.271700 -2.587500 3.388600 -105.525619 -2.433727 10.016049 10.617642 -11.672123 -1.314102 -1.664055 1.315728 7.716329 -7.125000 0.000000 0.000000 100.557923 -4.529874 5.638043 -14.461811 25.443569 -4.250508 0.417878 3.969132 -1.560715 7.125000 0.000000 0.000000 
7.757613 17.858318 34.572058 179.175679 -1.437574 -154.081944 -26.061185 -17.816785 -17.599219 -1.060857 4.670181 10.473227 -0.118752 -6.608158 -14.942944 2.397800 -9.649700 -27.849700 33.438540 14.814915 -16.212390 1.369727 -3.221834 7.169303 -1.111320 -0.364879 -20.956827 -2.052700 8.975000 -25.717200 1.312031 0.224706 -5.198801 -0.018744 -0.903827 13.783928 13.232845 -6.723249 14.793518 2.296400 -2.630000 3.210400 -105.579013 -2.478014 9.946264 10.657560 -11.736788 -1.324284 -1.672382 1.286329 7.696188 -7.125000 0.000000 0.000000 100.521349 -4.642293 5.391729 -14.281951 25.202276 -4.157503 0.415330 3.979819 -1.423564 7.125000 0.000000 0.000000 
7.753667 17.855468 34.569098 179.062089 -1.430193 -154.093479 -26.225986 -17.954838 -17.491735 -1.066644 4.638963 10.387972 -0.109757 -6.489873 -14.870776 2.331000 -9.523900 -27.448300 33.296386 14.688598 -16.183682 1.362977 -3.206129 7.160509 -1.107797 -0.295338 -20.887827 -2.006400 8.879400 -25.418700 1.297231 0.227585 -5.188618 -0.014495 -0.923715 13.852222 13.189727 -6.735446 15.497928 2.313500 -2.586200 3.605500 -105.596879 -2.516881 10.012269 10.710559 -11.811403 -1.340141 -1.675216 1.265292 7.629386 -7.125000 0.000000 0.000000 100.518655 -4.671044 5.160459 -14.136239 25.018710 -4.082307 0.399215 3.995619 -1.323296 7.125000 0.000000 0.000000 
7.751694 17.855468 34.570085 178.996127 -1.455620 -154.046961 -26.284725 -18.099442 -17.497796 -1.069351 4.632493 10.351410 -0.109046 -6.465871 -14.858313 2.165900 -9.203500 -26.433900 33.217134 14.566133 -16.287881 1.360661 -3.218002 7.181291 -1.103191 -0.302750 -20.854077 -2.065400 9.000900 -25.798200 1.275483 0.265956 -5.180518 -0.016242 -0.905214 13.874744 13.173876 -6.726099 15.130792 2.268100 -2.603100 3.410000 -105.500147 -2.549793 10.361482 10.772901 -11.913187 -1.362287 -1.688217 1.256621 7.245727 -7.125000 0.000000 0.000000 100.569969 -4.687727 4.965346 -14.004231 24.847052 -4.019188 0.408079 4.038080 -1.306586 7.125000 0.000000 0.000000 
7.753667 17.857332 34.575127 178.950754 -1.500848 -154.029432 -26.317334 -18.034914 -17.597806 -1.061871 4.665745 10.425891 -0.126784 -6.627525 -14.921766 2.187700 -9.246600 -26.569900 33.181144 14.605529 -16.330555 1.366410 -3.221902 7.176193 -1.101569 -0.443103 -20.880406 -2.106900 9.085400 -26.062700 1.278433 0.278010 -5.179339 0.086311 -0.905681 13.853936 13.243466 -6.744967 15.040177 2.288300 -2.616600 3.376800 -105.477922 -2.640239 10.461476 10.789673 -11.937260 -1.368470 -1.689763 1.259275 7.165377 -7.125000 0.000000 0.000000 100.563299 -4.667038 4.720095 -13.847617 24.632911 -3.945061 0.434324 4.074816 -1.324394 7.125000 0.000000 0.000000 
7.750159 17.854481 34.571181 178.936990 -1.448758 -154.028068 -26.368142 -18.108886 -17.523146 -1.071584 4.650981 10.393038 -0.090967 -6.484741 -15.087703 2.308700 -9.481400 -27.313200 33.103984 14.666981 -16.339160 1.364356 -3.244385 7.229969 -1.105029 -0.435188 -20.913770 -2.120300 9.112300 -26.147100 1.215173 0.410875 -5.161047 -0.063351 -0.841690 13.895550 13.244690 -6.849419 14.673383 2.223600 -2.690000 3.187000 -105.345920 -2.765999 10.378103 10.783720 -11.932503 -1.366631 -1.678103 1.269042 7.411994 -7.125000 0.000000 0.000000 100.775841 -4.629850 4.291699 -13.654137 24.377321 -3.853074 0.460800 4.081889 -1.103131 7.125000 0.000000 0.000000 
7.749392 17.854262 34.571620 178.950166 -1.457874 -154.018332 -26.331978 -18.132655 -17.549824 -1.072264 4.653207 10.389608 -0.091933 -6.479479 -15.073093 2.337200 -9.535700 -27.485900 33.130611 14.621138 -16.393866 1.359176 -3.292584 7.353395 -1.116090 -0.361418 -21.000830 -2.168500 9.208600 -26.449900 1.252296 0.301485 -5.177024 -0.040144 -0.903064 13.893348 13.094479 -6.809482 15.403154 2.225600 -2.623800 3.564600 -105.478141 -2.800922 9.870058 10.794467 -11.952115 -1.370565 -1.650934 1.303149 7.678585 -7.125000 0.000000 0.000000 100.638438 -4.617116 4.149188 -13.460853 24.112537 -3.754048 0.451346 4.077976 -0.839129 7.125000 0.000000 0.000000 
